:version 1.10
:name ASF
:units
  mass 1
  length 1
  angle deg
:documentation
  ASF file generated by Kaydara
:root
  axis xyz
  order  tx ty tz rx ry rz
  position 0 0 0
  orientation 0 0 0
:bonedata
  begin
    id 1
    name RightUpLegDummy
    direction -0.718183 -0.695806 0.00816078
    length 4.904
    axis 0 0 0 xyz
  end
  begin
    id 2
    name RightUpLeg
    direction -0.0736652 -0.994202 0.0783343
    length 17.4976
    axis -2.72909 -3.00389 -4.00133 xyz
    dof rx ry rz
  end
  begin
    id 3
    name RightLeg
    direction -0.0389037 -0.994596 -0.0962598
    length 16.5821
    axis 3.95836 -18.5909 -4.46993 xyz
    dof rx ry rz
  end
  begin
    id 4
    name RightFoot
    direction -0.311643 -0.412678 0.855906
    length 3.77069
    axis -1.99483 -18.8351 -3.27644 xyz
    dof rx ry rz
  end
  begin
    id 5
    name RightToes
    direction -0.317852 0.0389852 0.947339
    length 3.85082
    axis -2.00228 -18.1713 -3.25211 xyz
    dof rx ry rz
  end
  begin
    id 6
    name SpineDummy
    direction 8.3039e-015 1 4.44677e-016
    length 4.6813
    axis 0 0 0 xyz
  end
  begin
    id 7
    name Spine
    direction -0.000262373 0.999988 0.00493267
    length 10.1015
    axis -0.00246081 0.00062579 0.0150362 xyz
    dof rx ry rz
  end
  begin
    id 8
    name Spine1
    direction 0 0 0
    length 0
    axis -0.00349562 0.000650293 0.0196666 xyz
    dof rx ry rz
  end
  begin
    id 9
    name HEadDummy
    direction -0.000343232 0.999999 0.00123745
    length 3.43865
    axis -0.00349562 0.000650293 0.0196666 xyz
  end
  begin
    id 10
    name HEad
    direction -0.0461221 0.980933 0.188796
    length 5.12695
    axis -0.00351404 -7.04812 0.0199272 xyz
    dof rx ry rz
  end
  begin
    id 11
    name LeftShoulder1Dummy
    direction 0.998904 -0.0399089 -0.0244534
    length 3.5433
    axis -0.00349562 0.000650293 0.0196666 xyz
  end
  begin
    id 12
    name LeftShoulder1
    direction 0.99951 1.64443e-005 0.0312999
    length 4.05031
    axis -0.00349562 0.000650293 0.0196666 xyz
    dof rx ry rz
  end
  begin
    id 13
    name LeftArm
    direction 0.984791 0.0515299 0.165927
    length 12.9126
    axis -64.823 -10.7743 5.20463 xyz
    dof rx ry rz
  end
  begin
    id 14
    name LeftForeArm
    direction 0.984968 0.0534808 0.16425
    length 10.8596
    axis -30.0462 -7.70601 1.87451 xyz
    dof rx ry rz
  end
  begin
    id 15
    name LeftHand
    direction 0.975871 0.0289682 0.216418
    length 6.62295
    axis -20.1348 -6.98077 1.86072 xyz
    dof rx ry rz
  end
  begin
    id 16
    name RightShoulderDummy
    direction -0.998877 -0.0405946 -0.0244307
    length 3.5433
    axis -0.00349562 0.000650293 0.0196666 xyz
  end
  begin
    id 17
    name RightShoulder
    direction -0.998933 -0.0249743 -0.0388558
    length 4.05031
    axis -0.0205316 -4.02113 1.41395 xyz
    dof rx ry rz
  end
  begin
    id 18
    name RightArm
    direction -0.997559 0.068664 0.0127103
    length 12.9638
    axis -67.3882 1.84188 -6.15987 xyz
    dof rx ry rz
  end
  begin
    id 19
    name RightForeArm
    direction -0.991508 0.0912848 0.0926241
    length 10.8312
    axis -22.1975 3.41087 -4.28711 xyz
    dof rx ry rz
  end
  begin
    id 20
    name RightHand
    direction -0.989262 0.0600788 0.133232
    length 6.57864
    axis -12.2911 2.17515 -4.39675 xyz
    dof rx ry rz
  end
  begin
    id 21
    name LeftUpLegDummy
    direction 0.718183 -0.695806 0.00816078
    length 4.904
    axis 0 0 0 xyz
  end
  begin
    id 22
    name LeftUpLeg
    direction 0.0831398 -0.99469 0.0606531
    length 17.4976
    axis -1.71016 2.29552 4.63832 xyz
    dof rx ry rz
  end
  begin
    id 23
    name LeftLeg
    direction 0.0498442 -0.991778 -0.117862
    length 16.5821
    axis 5.13757 15.5727 5.13348 xyz
    dof rx ry rz
  end
  begin
    id 24
    name LeftFoot
    direction 0.269026 -0.433896 0.85986
    length 3.77069
    axis -0.576502 15.6961 4.10267 xyz
    dof rx ry rz
  end
  begin
    id 25
    name LeftToes
    direction 0.277311 0.0251143 0.960452
    length 3.85048
    axis -0.576502 15.6961 4.10267 xyz
    dof rx ry rz
  end
:hierarchy
  begin
    root RightUpLegDummy SpineDummy LeftUpLegDummy
    RightUpLegDummy RightUpLeg
    RightUpLeg RightLeg
    RightLeg RightFoot
    RightFoot RightToes
    SpineDummy Spine
    Spine Spine1
    Spine1 HEadDummy LeftShoulder1Dummy RightShoulderDummy
    HEadDummy HEad
    LeftShoulder1Dummy LeftShoulder1
    LeftShoulder1 LeftArm
    LeftArm LeftForeArm
    LeftForeArm LeftHand
    RightShoulderDummy RightShoulder
    RightShoulder RightArm
    RightArm RightForeArm
    RightForeArm RightHand
    LeftUpLegDummy LeftUpLeg
    LeftUpLeg LeftLeg
    LeftLeg LeftFoot
    LeftFoot LeftToes
  end

:SAMPLES-PER-SECOND 30
:FULLY-SPECIFIED
:DEGREES
133
root  -4.32381 19.1945 73.7231 -136.634 6.11646 -177.714
RightUpLeg  -50.6992 -7.34542 11.4118
RightLeg  120.762 21.6556 -9.44377
RightFoot  -40.476 2.5691 9.9912
RightToes  -5.82073e-011 -3.18055e-015 -2.98177e-016
Spine  49.9186 0.383499 5.19874
Spine1  -16.388 2.78648 -0.0250843
HEad  -18.8033 -6.49232 3.98072
LeftShoulder1  -3.88251e-019 9.70628e-020 -3.87848e-018
LeftArm  -10.3177 -18.3093 -72.0179
LeftForeArm  26.4494 -1.69759 -7.15142
LeftHand  -12.6133 -11.1076 77.2895
RightShoulder  6.52174 10.763 29.8855
RightArm  6.93924 14.8236 56.0193
RightForeArm  31.7838 4.53029 -0.768781
RightHand  -12.9855 11.0068 -77.4081
LeftUpLeg  -47.8098 -0.712362 1.60167
LeftLeg  117.661 -18.112 8.57249
LeftFoot  -45.5094 -5.96802 -19.9069
LeftToes  -2.27483e-011 -5.53417e-011 9.36564e-012
134
root  -4.3322 19.1918 73.7212 -136.584 6.12148 -177.68
RightUpLeg  -50.7827 -7.33276 11.4423
RightLeg  120.762 21.6851 -9.48716
RightFoot  -40.4164 2.5683 10.0176
RightToes  -5.82073e-011 -3.18055e-015 -2.98177e-016
Spine  49.9361 0.405812 5.20912
Spine1  -16.5173 2.80592 0.0371646
HEad  -18.8445 -6.37361 3.79802
LeftShoulder1  -3.88251e-019 9.70628e-020 -3.87848e-018
LeftArm  -10.375 -18.1847 -72.0576
LeftForeArm  26.585 -1.68974 -7.0948
LeftHand  -12.7084 -11.2266 77.2982
RightShoulder  6.53343 10.7667 29.9388
RightArm  6.96463 14.812 55.9505
RightForeArm  31.8633 4.52965 -0.742119
RightHand  -13.0046 11.0223 -77.4384
LeftUpLeg  -47.8673 -0.685192 1.59432
LeftLeg  117.646 -18.1432 8.62938
LeftFoot  -45.437 -5.89129 -19.6966
LeftToes  -2.27483e-011 -5.53417e-011 9.36564e-012
135
root  -4.33871 19.1918 73.7194 -136.587 6.21336 -177.585
RightUpLeg  -50.771 -7.20458 11.4372
RightLeg  120.751 21.6932 -9.5029
RightFoot  -40.4077 2.56757 10.0173
RightToes  -5.82073e-011 -3.18055e-015 -2.98177e-016
Spine  49.9722 0.512576 5.14128
Spine1  -16.5204 2.88299 0.134282
HEad  -18.9527 -6.23742 3.64536
LeftShoulder1  -3.88251e-019 9.70628e-020 -3.87848e-018
LeftArm  -10.4322 -18.0848 -72.0845
LeftForeArm  26.6064 -1.67889 -7.0346
LeftHand  -12.7888 -11.304 77.386
RightShoulder  6.53911 10.7697 29.9624
RightArm  7.00959 14.8736 55.9302
RightForeArm  31.9273 4.52253 -0.711998
RightHand  -13.0438 11.0628 -77.4703
LeftUpLeg  -47.8129 -0.552665 1.58264
LeftLeg  117.628 -18.1534 8.6521
LeftFoot  -45.4035 -5.82613 -19.4992
LeftToes  -2.27483e-011 -5.53417e-011 9.36564e-012
136
root  -4.34342 19.1922 73.7207 -136.611 6.32089 -177.496
RightUpLeg  -50.7547 -7.06691 11.4325
RightLeg  120.729 21.728 -9.56137
RightFoot  -40.3741 2.55803 9.99151
RightToes  -5.82073e-011 -3.18055e-015 -2.98177e-016
Spine  49.9617 0.601902 5.10428
Spine1  -16.3967 2.96082 0.130636
HEad  -19.0852 -6.20475 3.64852
LeftShoulder1  -3.88251e-019 9.70628e-020 -3.87848e-018
LeftArm  -10.3511 -18.0669 -72.1553
LeftForeArm  26.4694 -1.66871 -6.99513
LeftHand  -12.8028 -11.3124 77.4183
RightShoulder  6.53675 10.7684 29.9526
RightArm  7.00946 14.9027 55.9126
RightForeArm  31.9327 4.60629 -0.757013
RightHand  -13.0774 11.1026 -77.4801
LeftUpLeg  -47.7507 -0.418247 1.55891
LeftLeg  117.609 -18.1724 8.68988
LeftFoot  -45.3416 -5.76183 -19.3221
LeftToes  -2.27483e-011 -5.53417e-011 9.36564e-012
137
root  -4.34927 19.1898 73.7292 -136.612 6.38031 -177.481
RightUpLeg  -50.8191 -7.02328 11.4289
RightLeg  120.743 21.7885 -9.64626
RightFoot  -40.304 2.55759 10.0175
RightToes  -5.82073e-011 -3.18055e-015 -2.98177e-016
Spine  49.9265 0.62456 5.12146
Spine1  -16.3337 2.99071 0.0612033
HEad  -19.0504 -6.31864 3.69498
LeftShoulder1  -3.88251e-019 9.70628e-020 -3.87848e-018
LeftArm  -10.2663 -18.1442 -72.1869
LeftForeArm  26.4031 -1.67905 -7.05745
LeftHand  -12.7975 -11.3166 77.3809
RightShoulder  6.51886 10.7553 29.8858
RightArm  6.94869 14.8123 55.8862
RightForeArm  31.8913 4.7486 -0.859674
RightHand  -13.0753 11.107 -77.4561
LeftUpLeg  -47.7979 -0.366857 1.48825
LeftLeg  117.599 -18.2488 8.82093
LeftFoot  -45.1685 -5.67186 -19.1269
LeftToes  -2.27483e-011 -5.53417e-011 9.36564e-012
138
root  -4.35834 19.1828 73.7437 -136.591 6.38255 -177.519
RightUpLeg  -50.9125 -7.06461 11.4198
RightLeg  120.801 21.8326 -9.69223
RightFoot  -40.2908 2.58438 10.1332
RightToes  -5.82073e-011 -3.18055e-015 -2.98177e-016
Spine  49.9065 0.611474 5.1644
Spine1  -16.417 2.98816 0.0263721
HEad  -18.7824 -6.51568 3.6479
LeftShoulder1  -3.88251e-019 9.70628e-020 -3.87848e-018
LeftArm  -10.2746 -18.1986 -72.2031
LeftForeArm  26.4771 -1.69604 -7.14015
LeftHand  -12.8178 -11.347 77.3649
RightShoulder  6.49444 10.7383 29.7928
RightArm  6.89651 14.6878 55.8516
RightForeArm  31.852 4.81734 -0.914029
RightHand  -13.0489 11.0858 -77.4143
LeftUpLeg  -47.9545 -0.375263 1.37665
LeftLeg  117.606 -18.4069 9.08325
LeftFoot  -44.8641 -5.54505 -18.8853
LeftToes  -2.27483e-011 -5.53417e-011 9.36564e-012
139
root  -4.36789 19.1737 73.7611 -136.58 6.36337 -177.535
RightUpLeg  -50.9526 -7.1071 11.4328
RightLeg  120.851 21.8635 -9.72124
RightFoot  -40.369 2.61733 10.2373
RightToes  -5.82073e-011 -3.18055e-015 -2.98177e-016
Spine  49.9073 0.596599 5.23343
Spine1  -16.5458 2.99626 -0.00604174
HEad  -18.4628 -6.69429 3.55472
LeftShoulder1  -3.88251e-019 9.70628e-020 -3.87848e-018
LeftArm  -10.2638 -18.1294 -72.3443
LeftForeArm  26.5157 -1.68471 -7.07547
LeftHand  -12.8304 -11.3585 77.3809
RightShoulder  6.50089 10.7373 29.8283
RightArm  6.93446 14.6917 55.7491
RightForeArm  31.8511 4.78173 -0.859693
RightHand  -13.0391 11.078 -77.3984
LeftUpLeg  -48.1289 -0.368301 1.27249
LeftLeg  117.615 -18.6202 9.43557
LeftFoot  -44.4984 -5.40316 -18.6244
LeftToes  -2.27483e-011 -5.53417e-011 9.36564e-012
140
root  -4.37491 19.1633 73.783 -136.563 6.32893 -177.507
RightUpLeg  -50.9951 -7.12403 11.5172
RightLeg  120.868 21.9185 -9.79617
RightFoot  -40.461 2.62467 10.2302
RightToes  -5.82073e-011 -3.18055e-015 -2.98177e-016
Spine  49.8841 0.564337 5.36225
Spine1  -16.6256 3.01759 -0.110276
HEad  -18.2847 -6.79246 3.50248
LeftShoulder1  -3.88251e-019 9.70628e-020 -3.87848e-018
LeftArm  -10.2116 -18.0698 -72.5237
LeftForeArm  26.4891 -1.66454 -6.9708
LeftHand  -12.7975 -11.3234 77.357
RightShoulder  6.54949 10.7522 30.0512
RightArm  7.04053 14.8242 55.5582
RightForeArm  31.858 4.75086 -0.761981
RightHand  -13.0473 11.0813 -77.4223
LeftUpLeg  -48.3 -0.340424 1.23152
LeftLeg  117.634 -18.8187 9.75807
LeftFoot  -44.204 -5.28335 -18.3898
LeftToes  -2.27483e-011 -5.53417e-011 9.36564e-012
141
root  -4.38008 19.1524 73.8103 -136.534 6.27415 -177.465
RightUpLeg  -51.0808 -7.14238 11.6483
RightLeg  120.895 21.9808 -9.87836
RightFoot  -40.5125 2.61429 10.167
RightToes  -5.82073e-011 -3.18055e-015 -2.98177e-016
Spine  49.8488 0.517863 5.51654
Spine1  -16.6848 3.03629 -0.205887
HEad  -18.2308 -6.80408 3.44252
LeftShoulder1  -3.88251e-019 9.70628e-020 -3.87848e-018
LeftArm  -10.287 -18.204 -72.4738
LeftForeArm  26.5653 -1.69078 -7.10244
LeftHand  -12.7485 -11.2773 77.3003
RightShoulder  6.59731 10.7609 30.2817
RightArm  7.11966 14.9296 55.3757
RightForeArm  31.8217 4.80611 -0.718054
RightHand  -13.0339 11.0599 -77.4374
LeftUpLeg  -48.4509 -0.3335 1.27256
LeftLeg  117.696 -18.9198 9.90371
LeftFoot  -44.0947 -5.21022 -18.2005
LeftToes  -2.27483e-011 -5.53417e-011 9.36564e-012
142
root  -4.38581 19.1426 73.8371 -136.518 6.21323 -177.448
RightUpLeg  -51.1569 -7.17753 11.7282
RightLeg  120.969 21.992 -9.86993
RightFoot  -40.5546 2.6122 10.1416
RightToes  -5.82073e-011 -3.18055e-015 -2.98177e-016
Spine  49.8329 0.498049 5.60083
Spine1  -16.7656 3.04742 -0.151446
HEad  -18.1661 -6.75004 3.31041
LeftShoulder1  -3.88251e-019 9.70628e-020 -3.87848e-018
LeftArm  -10.5198 -18.4286 -72.2139
LeftForeArm  26.7336 -1.75474 -7.42594
LeftHand  -12.7218 -11.2436 77.2988
RightShoulder  6.61606 10.7569 30.3868
RightArm  7.15433 14.9623 55.2814
RightForeArm  31.797 4.87704 -0.716899
RightHand  -13.0006 11.0258 -77.4089
LeftUpLeg  -48.554 -0.370257 1.35093
LeftLeg  117.797 -18.9123 9.85566
LeftFoot  -44.1195 -5.16185 -18.015
LeftToes  -2.27483e-011 -5.53417e-011 9.36564e-012
143
root  -4.39031 19.1353 73.8571 -136.517 6.17787 -177.455
RightUpLeg  -51.1973 -7.19596 11.7212
RightLeg  121.064 21.9549 -9.78429
RightFoot  -40.5937 2.61144 10.123
RightToes  -5.82073e-011 -3.18055e-015 -2.98177e-016
Spine  49.8238 0.529129 5.57898
Spine1  -16.8498 3.06058 0.0134612
HEad  -18.0291 -6.67181 3.18613
LeftShoulder1  -3.88251e-019 9.70628e-020 -3.87848e-018
LeftArm  -10.6646 -18.4798 -72.0541
LeftForeArm  26.7463 -1.79017 -7.6142
LeftHand  -12.6959 -11.1928 77.3604
RightShoulder  6.63242 10.7564 30.4725
RightArm  7.21008 15.0288 55.2315
RightForeArm  31.8898 4.85261 -0.67635
RightHand  -12.9933 11.0277 -77.3707
LeftUpLeg  -48.6259 -0.412737 1.40871
LeftLeg  117.892 -18.8744 9.76054
LeftFoot  -44.1064 -5.09922 -17.8024
LeftToes  -2.27483e-011 -5.53417e-011 9.36564e-012
144
root  -4.38915 19.1292 73.8731 -136.499 6.19139 -177.457
RightUpLeg  -51.2646 -7.1616 11.691
RightLeg  121.142 21.9328 -9.72669
RightFoot  -40.5859 2.59399 10.0549
RightToes  -5.82073e-011 -3.18055e-015 -2.98177e-016
Spine  49.8004 0.584349 5.52375
Spine1  -16.9345 3.08462 0.0788232
HEad  -17.8418 -6.6375 3.18625
LeftShoulder1  -3.88251e-019 9.70628e-020 -3.87848e-018
LeftArm  -10.5579 -18.3466 -72.1588
LeftForeArm  26.5542 -1.77364 -7.54658
LeftHand  -12.645 -11.1167 77.3994
RightShoulder  6.66156 10.7658 30.6044
RightArm  7.29011 15.1144 55.1475
RightForeArm  32.0202 4.78649 -0.597612
RightHand  -13.0109 11.056 -77.3507
LeftUpLeg  -48.7196 -0.401977 1.42002
LeftLeg  117.942 -18.8891 9.76721
LeftFoot  -43.9841 -5.0188 -17.592
LeftToes  -2.27483e-011 -5.53417e-011 9.36564e-012
145
root  -4.38075 19.1224 73.8924 -136.458 6.26047 -177.434
RightUpLeg  -51.3829 -7.0702 11.7007
RightLeg  121.199 21.9593 -9.74614
RightFoot  -40.5407 2.57931 10.0129
RightToes  -5.82073e-011 -3.18055e-015 -2.98177e-016
Spine  49.7999 0.638427 5.51167
Spine1  -17.0706 3.13196 -0.07825
HEad  -17.6263 -6.68309 3.27496
LeftShoulder1  -3.88251e-019 9.70628e-020 -3.87848e-018
LeftArm  -10.3465 -18.2198 -72.4303
LeftForeArm  26.4328 -1.73729 -7.3653
LeftHand  -12.6048 -11.0696 77.3845
RightShoulder  6.67474 10.7712 30.6584
RightArm  7.32045 15.0439 54.9981
RightForeArm  31.97 4.86582 -0.571236
RightHand  -13.0035 11.055 -77.3219
LeftUpLeg  -48.8282 -0.313991 1.39509
LeftLeg  117.959 -18.959 9.8755
LeftFoot  -43.8573 -4.94884 -17.4197
LeftToes  -2.27483e-011 -5.53417e-011 9.36564e-012
146
root  -4.366 19.1158 73.9163 -136.43 6.39578 -177.387
RightUpLeg  -51.4875 -6.91868 11.7476
RightLeg  121.235 22.0238 -9.82798
RightFoot  -40.5303 2.59722 10.0901
RightToes  -5.82073e-011 -3.18055e-015 -2.98177e-016
Spine  49.8715 0.728296 5.49976
Spine1  -17.2743 3.22175 -0.348682
HEad  -17.4045 -6.74774 3.30121
LeftShoulder1  -3.88251e-019 9.70628e-020 -3.87848e-018
LeftArm  -10.2029 -18.1674 -72.7462
LeftForeArm  26.5223 -1.70433 -7.17949
LeftHand  -12.613 -11.0866 77.3617
RightShoulder  6.66472 10.7661 30.6124
RightArm  7.28977 14.7929 54.782
RightForeArm  31.7405 5.14197 -0.630469
RightHand  -12.9763 11.0329 -77.2795
LeftUpLeg  -48.8799 -0.153779 1.35222
LeftLeg  117.967 -19.0221 9.97547
LeftFoot  -43.8309 -4.90457 -17.2778
LeftToes  -2.27483e-011 -5.53417e-011 9.36564e-012
147
root  -4.34734 19.1143 73.9385 -136.475 6.56378 -177.328
RightUpLeg  -51.4777 -6.74852 11.8143
RightLeg  121.209 22.1165 -9.97046
RightFoot  -40.5843 2.63785 10.2343
RightToes  -5.82073e-011 -3.18055e-015 -2.98177e-016
Spine  50.0348 0.86821 5.42296
Spine1  -17.4709 3.33994 -0.539256
HEad  -17.2248 -6.74645 3.20526
LeftShoulder1  -3.88251e-019 9.70628e-020 -3.87848e-018
LeftArm  -10.2123 -18.1918 -72.9478
LeftForeArm  26.7357 -1.69019 -7.08082
LeftHand  -12.639 -11.1271 77.3363
RightShoulder  6.6609 10.7569 30.6191
RightArm  7.26839 14.5612 54.5461
RightForeArm  31.5629 5.45807 -0.712758
RightHand  -12.9847 11.0494 -77.2598
LeftUpLeg  -48.8093 0.0326252 1.32791
LeftLeg  117.967 -19.0375 10.0002
LeftFoot  -43.8579 -4.86668 -17.1271
LeftToes  -2.27483e-011 -5.53417e-011 9.36564e-012
